<!DOCTYPE svg PUBLIC "-//W3C//DTD SVG 20010904//EN" "http://www.w3.org/TR/2001/REC-SVG-20010904/DTD/svg10.dtd">
<svg version="1.0" xmlns="http://www.w3.org/2000/svg" width="150px" height="50px" viewBox="0 0 1500 500" preserveAspectRatio="xMidYMid meet">
<g id="layer101" fill="#01206c" stroke="none">
 <path d="M571 415 c-96 -30 -179 -59 -185 -65 -17 -17 7 -45 37 -42 20 2 26 -2 29 -20 3 -21 8 -23 58 -22 l55 1 -47 -10 c-59 -13 -67 -39 -10 -30 63 10 135 42 195 89 l58 45 35 -34 c20 -19 57 -45 82 -57 50 -26 150 -52 164 -44 17 11 7 24 -19 25 -16 1 -39 5 -53 9 -16 6 -7 7 27 3 50 -5 53 -4 63 22 7 18 15 25 25 21 39 -14 64 33 28 52 -20 10 -353 112 -362 111 -3 0 -84 -25 -180 -54z"/>
 <path d="M709 243 c-41 -60 -58 -106 -59 -163 l0 -45 105 0 105 0 0 42 c0 75 -69 213 -106 213 -7 0 -28 -21 -45 -47z"/>
 </g>
<g id="layer102" fill="#65481a" stroke="none">
 <path d="M571 415 c-96 -30 -179 -59 -185 -65 -17 -17 7 -45 37 -42 20 2 26 -2 29 -20 3 -21 8 -23 58 -22 l55 1 -47 -10 c-59 -13 -67 -39 -10 -30 63 10 135 42 195 89 l58 45 35 -34 c20 -19 57 -45 82 -57 50 -26 150 -52 164 -44 17 11 7 24 -19 25 -16 1 -39 5 -53 9 -16 6 -7 7 27 3 50 -5 53 -4 63 22 7 18 15 25 25 21 39 -14 64 33 28 52 -20 10 -353 112 -362 111 -3 0 -84 -25 -180 -54z"/>
 <path d="M709 243 c-41 -60 -58 -106 -59 -163 l0 -45 105 0 105 0 0 42 c0 75 -69 213 -106 213 -7 0 -28 -21 -45 -47z"/>
 </g>
<g id="layer103" fill="#084191" stroke="none">
 <path d="M725 459 c-15 -7 -12 -8 15 -4 l35 5 -30 -14 c-32 -15 -30 -18 10 -18 47 0 51 2 35 13 -12 8 -10 9 10 5 65 -15 72 -15 40 -2 -53 20 -93 26 -115 15z"/>
 <path d="M655 440 c-13 -5 -14 -9 -5 -9 8 0 24 4 35 9 13 5 14 9 5 9 -8 0 -24 -4 -35 -9z"/>
 <path d="M555 410 c-13 -5 -14 -9 -5 -9 8 0 24 4 35 9 13 5 14 9 5 9 -8 0 -24 -4 -35 -9z"/>
 <path d="M715 404 c-22 -7 -92 -29 -157 -48 l-116 -36 7 -28 c7 -25 11 -27 62 -26 l54 1 -47 -10 c-59 -13 -67 -39 -10 -30 63 10 135 42 195 89 l58 45 35 -34 c20 -19 57 -45 82 -57 50 -26 150 -52 164 -44 17 11 7 24 -19 25 -16 1 -39 5 -53 9 -16 6 -7 7 27 3 50 -5 53 -4 63 21 5 15 10 29 10 31 0 3 -60 23 -132 45 -73 23 -144 45 -158 49 -15 5 -41 3 -65 -5z"/>
 <path d="M925 410 c11 -5 27 -9 35 -9 9 0 8 4 -5 9 -11 5 -27 9 -35 9 -9 0 -8 -4 5 -9z"/>
 <path d="M1040 375 c19 -7 42 -13 50 -13 8 0 -1 6 -20 13 -19 7 -42 13 -50 13 -8 0 1 -6 20 -13z"/>
 <path d="M425 370 c-13 -5 -14 -9 -5 -9 8 0 24 4 35 9 13 5 14 9 5 9 -8 0 -24 -4 -35 -9z"/>
 <path d="M709 243 c-41 -60 -58 -106 -59 -163 l0 -45 105 0 105 0 0 42 c0 23 -9 66 -20 95 -19 52 -69 118 -89 118 -6 0 -25 -21 -42 -47z"/>
 </g>
<g id="layer104" fill="#506264" stroke="none">
 <path d="M725 459 c-15 -7 -12 -8 15 -4 l35 5 -30 -14 c-32 -15 -30 -18 10 -18 47 0 51 2 35 13 -12 8 -10 9 10 5 65 -15 72 -15 40 -2 -53 20 -93 26 -115 15z"/>
 <path d="M655 440 c-13 -5 -14 -9 -5 -9 8 0 24 4 35 9 13 5 14 9 5 9 -8 0 -24 -4 -35 -9z"/>
 <path d="M555 410 c-13 -5 -14 -9 -5 -9 8 0 24 4 35 9 13 5 14 9 5 9 -8 0 -24 -4 -35 -9z"/>
 <path d="M715 404 c-22 -7 -92 -29 -157 -48 l-116 -36 7 -28 c7 -25 11 -27 62 -26 l54 1 -47 -10 c-59 -13 -67 -39 -10 -30 63 10 135 42 195 89 l58 45 35 -34 c20 -19 57 -45 82 -57 50 -26 150 -52 164 -44 17 11 7 24 -19 25 -16 1 -39 5 -53 9 -16 6 -7 7 27 3 50 -5 53 -4 63 21 5 15 10 29 10 31 0 3 -60 23 -132 45 -73 23 -144 45 -158 49 -15 5 -41 3 -65 -5z"/>
 <path d="M925 410 c11 -5 27 -9 35 -9 9 0 8 4 -5 9 -11 5 -27 9 -35 9 -9 0 -8 -4 5 -9z"/>
 <path d="M1040 375 c19 -7 42 -13 50 -13 8 0 -1 6 -20 13 -19 7 -42 13 -50 13 -8 0 1 -6 20 -13z"/>
 <path d="M425 370 c-13 -5 -14 -9 -5 -9 8 0 24 4 35 9 13 5 14 9 5 9 -8 0 -24 -4 -35 -9z"/>
 <path d="M709 243 c-41 -60 -58 -106 -59 -163 l0 -45 105 0 105 0 0 42 c0 23 -9 66 -20 95 -19 52 -69 118 -89 118 -6 0 -25 -21 -42 -47z m102 -68 c10 -22 19 -55 19 -72 0 -32 -2 -33 -37 -32 -21 1 -30 3 -20 6 20 5 22 19 5 26 -10 4 -9 8 2 16 8 6 19 12 23 14 15 5 -5 60 -24 64 -11 3 -20 15 -20 27 l-2 21 -4 -21 c-2 -12 -12 -24 -22 -27 -19 -5 -39 -59 -24 -64 4 -2 15 -8 23 -14 11 -8 12 -12 3 -16 -18 -7 -16 -23 2 -23 8 0 15 -4 15 -8 0 -4 -16 -6 -35 -4 -28 3 -35 9 -35 26 0 37 18 87 46 123 25 34 26 34 46 16 12 -10 29 -36 39 -58z"/>
 </g>
<g id="layer105" fill="#9c573d" stroke="none">
 <path d="M725 459 c-15 -7 -12 -8 15 -4 l35 5 -30 -14 c-32 -15 -30 -18 10 -18 47 0 51 2 35 13 -12 8 -10 9 10 5 65 -15 72 -15 40 -2 -53 20 -93 26 -115 15z"/>
 <path d="M655 440 c-13 -5 -14 -9 -5 -9 8 0 24 4 35 9 13 5 14 9 5 9 -8 0 -24 -4 -35 -9z"/>
 <path d="M555 410 c-13 -5 -14 -9 -5 -9 8 0 24 4 35 9 13 5 14 9 5 9 -8 0 -24 -4 -35 -9z"/>
 <path d="M715 404 c-22 -7 -92 -29 -157 -48 l-116 -36 7 -28 c7 -25 11 -27 62 -26 l54 1 -47 -10 c-59 -13 -67 -39 -10 -30 63 10 135 42 195 89 l58 45 35 -34 c20 -19 57 -45 82 -57 50 -26 150 -52 164 -44 17 11 7 24 -19 25 -16 1 -39 5 -53 9 -16 6 -7 7 27 3 50 -5 53 -4 63 21 5 15 10 29 10 31 0 3 -60 23 -132 45 -73 23 -144 45 -158 49 -15 5 -41 3 -65 -5z"/>
 <path d="M925 410 c11 -5 27 -9 35 -9 9 0 8 4 -5 9 -11 5 -27 9 -35 9 -9 0 -8 -4 5 -9z"/>
 <path d="M1040 375 c19 -7 42 -13 50 -13 8 0 -1 6 -20 13 -19 7 -42 13 -50 13 -8 0 1 -6 20 -13z"/>
 <path d="M425 370 c-13 -5 -14 -9 -5 -9 8 0 24 4 35 9 13 5 14 9 5 9 -8 0 -24 -4 -35 -9z"/>
 <path d="M704 236 c-37 -56 -53 -106 -54 -166 l0 -35 58 0 c31 0 62 4 68 7 6 4 26 3 45 -2 19 -6 36 -10 38 -10 10 0 -10 121 -27 160 -19 44 -66 100 -83 100 -5 0 -25 -24 -45 -54z m107 -61 c10 -22 19 -54 19 -71 0 -29 -3 -32 -35 -36 -24 -3 -35 0 -35 9 0 7 8 13 18 13 15 0 15 2 2 11 -8 6 -11 12 -5 15 33 15 37 22 28 50 -7 19 -16 28 -27 26 -11 -2 -16 5 -17 25 l-2 28 -4 -28 c-3 -18 -10 -27 -20 -25 -17 3 -43 -54 -27 -59 5 -2 16 -8 24 -13 13 -9 13 -11 0 -20 -13 -9 -7 -14 13 -11 4 0 7 -5 7 -12 0 -9 -11 -12 -35 -9 -28 3 -35 9 -35 26 0 37 18 87 46 123 25 34 26 34 46 16 12 -10 29 -36 39 -58z"/>
 </g>
<g id="layer106" fill="#888948" stroke="none">
 <path d="M810 445 c19 -7 42 -13 50 -13 8 0 -1 6 -20 13 -19 7 -42 13 -50 13 -8 0 1 -6 20 -13z"/>
 <path d="M655 440 c-13 -5 -14 -9 -5 -9 8 0 24 4 35 9 13 5 14 9 5 9 -8 0 -24 -4 -35 -9z"/>
 <path d="M555 410 c-13 -5 -14 -9 -5 -9 8 0 24 4 35 9 13 5 14 9 5 9 -8 0 -24 -4 -35 -9z"/>
 <path d="M715 404 c-22 -7 -92 -29 -157 -48 l-116 -36 7 -28 c7 -25 11 -27 62 -26 l54 1 -47 -10 c-59 -13 -67 -39 -10 -30 63 10 135 42 195 89 l58 45 35 -34 c20 -19 57 -45 82 -57 50 -26 150 -52 164 -44 17 11 7 24 -19 25 -16 1 -39 5 -53 9 -16 6 -7 7 27 3 50 -5 53 -4 63 21 5 15 10 29 10 31 0 3 -60 23 -132 45 -73 23 -144 45 -158 49 -15 5 -41 3 -65 -5z"/>
 <path d="M925 410 c11 -5 27 -9 35 -9 9 0 8 4 -5 9 -11 5 -27 9 -35 9 -9 0 -8 -4 5 -9z"/>
 <path d="M1040 375 c19 -7 42 -13 50 -13 8 0 -1 6 -20 13 -19 7 -42 13 -50 13 -8 0 1 -6 20 -13z"/>
 <path d="M425 370 c-13 -5 -14 -9 -5 -9 8 0 24 4 35 9 13 5 14 9 5 9 -8 0 -24 -4 -35 -9z"/>
 <path d="M704 236 c-37 -56 -53 -106 -54 -166 l0 -35 58 0 c31 0 62 4 68 7 6 4 26 3 45 -2 19 -6 36 -10 38 -10 11 0 -10 122 -29 162 -21 46 -65 98 -81 98 -5 0 -25 -24 -45 -54z m107 -61 c10 -22 19 -54 19 -71 0 -29 -3 -32 -35 -36 -24 -3 -35 0 -35 9 0 7 8 13 18 13 15 0 15 2 2 11 -8 6 -11 12 -5 15 33 15 37 22 28 50 -7 19 -16 28 -27 26 -11 -2 -16 5 -17 25 l-2 28 -4 -28 c-3 -18 -10 -27 -20 -25 -17 3 -43 -54 -27 -59 5 -2 16 -8 24 -13 13 -9 13 -11 0 -20 -13 -9 -7 -14 13 -11 4 0 7 -5 7 -12 0 -9 -11 -12 -35 -9 -28 3 -35 9 -35 26 0 37 18 87 46 123 25 34 26 34 46 16 12 -10 29 -36 39 -58z m-42 -26 c-7 -4 -18 -5 -26 -2 -10 4 -11 9 -2 19 9 11 15 12 26 3 11 -9 11 -14 2 -20z"/>
 </g>
<g id="layer107" fill="#567195" stroke="none">
 <path d="M589 363 c-146 -45 -147 -45 -139 -72 6 -24 11 -26 61 -25 l54 1 -47 -10 c-59 -13 -67 -39 -10 -30 63 10 135 42 195 89 l58 45 35 -34 c20 -19 57 -45 82 -57 50 -26 150 -52 164 -44 17 11 7 24 -19 25 -16 1 -39 5 -53 9 -16 6 -7 7 27 3 50 -5 53 -4 63 22 6 15 9 29 8 30 -9 8 -299 95 -314 94 -11 0 -85 -21 -165 -46z"/>
 <path d="M704 236 c-37 -56 -53 -106 -54 -166 l0 -35 58 0 c31 0 62 4 68 7 6 4 26 3 45 -2 19 -6 36 -10 38 -10 11 0 -10 122 -29 162 -21 46 -65 98 -81 98 -5 0 -25 -24 -45 -54z m107 -61 c10 -22 19 -54 19 -71 0 -29 -3 -32 -37 -36 -21 -3 -55 -3 -75 0 -31 4 -38 9 -38 26 0 37 18 87 46 123 25 34 26 34 46 16 12 -10 29 -36 39 -58z"/>
 <path d="M751 217 c-1 -20 -6 -27 -17 -25 -21 4 -44 -54 -25 -60 6 -2 18 -10 25 -18 18 -18 24 -18 42 0 7 8 19 16 25 18 19 6 -4 64 -24 60 -10 -2 -17 7 -20 25 l-4 28 -2 -28z m17 -69 c-6 -3 -17 -4 -24 -1 -10 4 -10 9 -2 23 11 17 13 17 24 2 9 -12 9 -19 2 -24z"/>
 </g>
<g id="layer108" fill="#6495bf" stroke="none">
 <path d="M589 363 c-146 -45 -147 -45 -139 -72 6 -24 11 -26 61 -25 l54 1 -47 -10 c-28 -6 -48 -16 -48 -23 0 -16 39 -10 119 17 56 19 161 92 161 111 0 6 17 -6 38 -26 20 -21 60 -50 87 -64 53 -27 153 -55 167 -46 17 11 7 24 -19 25 -16 1 -39 5 -53 9 -16 6 -7 7 27 3 50 -5 53 -4 63 22 6 15 9 29 8 30 -9 8 -299 95 -314 94 -11 0 -85 -21 -165 -46z"/>
 <path d="M731 277 c-6 -8 -8 -17 -4 -20 3 -4 1 -7 -5 -7 -23 0 -62 -87 -68 -151 l-6 -64 58 0 c33 0 62 4 65 8 3 5 23 4 43 -1 45 -13 51 -4 43 62 -7 54 -40 127 -74 161 -29 29 -36 30 -52 12z m68 -79 c16 -35 31 -78 33 -97 l3 -35 -80 0 -80 0 3 29 c7 66 56 165 83 165 4 0 21 -28 38 -62z"/>
 <path d="M709 172 c-13 -34 -11 -40 11 -47 11 -3 20 -11 20 -16 0 -14 19 -11 36 5 7 8 19 16 25 18 9 3 9 12 2 33 -8 25 -15 29 -47 30 -31 0 -40 -4 -47 -23z m59 -24 c-6 -3 -17 -4 -24 -1 -10 4 -10 9 -2 23 11 17 13 17 24 2 9 -12 9 -19 2 -24z"/>
 </g>
<g id="layer109" fill="#b0adaf" stroke="none">
 <path d="M589 363 c-146 -45 -147 -45 -139 -72 6 -24 11 -26 61 -25 l54 1 -47 -10 c-28 -6 -48 -16 -48 -23 0 -16 39 -10 119 17 56 19 161 92 161 111 0 6 17 -6 38 -26 20 -21 60 -50 87 -64 53 -27 153 -55 167 -46 17 11 7 24 -19 25 -16 1 -39 5 -53 9 -16 6 -7 7 27 3 50 -5 53 -4 63 22 6 15 9 29 8 30 -9 8 -299 95 -314 94 -11 0 -85 -21 -165 -46z"/>
 <path d="M731 277 c-6 -8 -8 -17 -4 -20 3 -4 1 -7 -5 -7 -23 0 -62 -87 -68 -151 l-6 -64 58 0 c33 0 62 4 65 8 3 5 23 4 43 -1 45 -13 51 -4 43 62 -7 54 -40 127 -74 161 -29 29 -36 30 -52 12z m62 -61 c24 -38 51 -132 42 -146 -2 -3 -39 -5 -82 -5 l-78 1 3 35 c1 19 7 48 14 64 13 34 55 95 66 95 4 0 19 -20 35 -44z"/>
 <path d="M709 172 c-13 -34 -12 -39 16 -46 14 -4 25 -11 25 -17 0 -6 7 -3 16 5 8 9 22 16 30 16 15 0 17 14 5 44 -6 14 -18 20 -45 21 -31 0 -40 -4 -47 -23z m59 -24 c-6 -3 -17 -4 -24 -1 -10 4 -10 9 -2 23 11 17 13 17 24 2 9 -12 9 -19 2 -24z"/>
 </g>
<g id="layer110" fill="#b7ccf0" stroke="none">
 <path d="M600 362 c-80 -25 -147 -47 -149 -48 -2 -2 1 -15 7 -28 10 -22 13 -23 66 -15 30 5 67 14 82 19 15 6 29 8 31 6 7 -7 -65 -36 -122 -48 -27 -7 -42 -13 -33 -16 48 -10 179 49 244 109 l30 29 20 -21 c45 -52 182 -119 240 -119 36 0 36 16 1 18 -37 3 -125 30 -131 41 -3 4 30 -2 72 -12 l76 -19 18 22 c11 13 15 27 11 31 -8 7 -304 100 -313 98 -3 -1 -70 -22 -150 -47z"/>
 <path d="M790 221 c0 -5 7 -14 15 -21 16 -14 18 -10 9 14 -6 17 -24 22 -24 7z"/>
 <path d="M711 168 c-10 -26 -6 -38 14 -38 8 0 19 -8 24 -17 6 -11 11 -13 11 -5 0 7 11 17 24 22 19 7 23 14 19 30 -6 23 -29 37 -41 26 -3 -4 0 -11 8 -16 20 -12 -2 -35 -24 -27 -18 7 -22 27 -6 27 6 0 10 5 10 10 0 19 -31 10 -39 -12z"/>
 <path d="M838 80 c-3 -16 -1 -35 4 -42 4 -8 8 4 8 30 0 49 -6 55 -12 12z"/>
 <path d="M660 69 c0 -16 4 -28 9 -25 8 5 3 56 -5 56 -2 0 -4 -14 -4 -31z"/>
 </g>
<g id="layer111" fill="#e6edf7" stroke="none">
 <path d="M761 381 c13 -37 68 -83 141 -116 59 -27 133 -42 141 -29 3 5 -11 10 -30 11 -42 2 -130 33 -145 50 -6 8 11 5 47 -7 79 -27 132 -27 140 1 4 11 5 22 3 24 -1 1 -66 22 -143 45 -77 24 -146 45 -152 47 -10 4 -10 -2 -2 -26z"/>
 <path d="M800 209 c7 -11 14 -19 16 -16 7 7 -7 37 -17 37 -6 0 -5 -9 1 -21z"/>
 <path d="M711 168 c-12 -32 -6 -38 44 -38 50 0 56 6 44 38 -8 22 -39 31 -39 12 0 -5 5 -10 10 -10 16 0 12 -20 -6 -27 -8 -3 -21 0 -27 7 -9 10 -9 14 1 17 17 7 15 23 -3 23 -9 0 -19 -10 -24 -22z"/>
 <path d="M838 80 c-3 -16 -1 -35 4 -42 4 -8 8 4 8 30 0 49 -6 55 -12 12z"/>
 <path d="M660 69 c0 -16 4 -28 9 -25 8 5 3 56 -5 56 -2 0 -4 -14 -4 -31z"/>
 </g>

</svg>